<svg id="visual" viewBox="0 0 900 600" xmlns="http://www.w3.org/2000/svg" xmlns:xlink="http://www.w3.org/1999/xlink" version="1.1"><path d="M0 455L30 464.7C60 474.3 120 493.7 180 493C240 492.3 300 471.7 360 469.7C420 467.7 480 484.3 540 484.2C600 484 660 467 720 468C780 469 840 488 870 497.5L900 507L900 601L870 601C840 601 780 601 720 601C660 601 600 601 540 601C480 601 420 601 360 601C300 601 240 601 180 601C120 601 60 601 30 601L0 601Z" fill="#484848" stroke-linecap="round" stroke-linejoin="miter"></path></svg>